# This file uses centimeters as units for non-parametric coordinates.

mtllib Crown.mtl
g default
v 0.333971 0.981641 -0.061060
v 0.306540 0.807200 -0.035419
v 0.253493 0.803448 -0.056030
v 0.313102 1.014193 -0.075280
v 0.358734 1.023343 -0.153103
v 0.333075 1.052424 -0.150673
v 0.350312 1.125096 -0.181462
v 0.360004 1.150890 -0.218053
v 0.370657 1.096409 -0.181881
v 0.350314 0.994765 -0.110143
v 0.326451 1.018229 -0.113034
v 0.333918 0.934912 -0.299789
v 0.307352 0.764125 -0.255483
v 0.253493 0.768001 -0.237122
v 0.313035 0.970416 -0.298931
v 0.358734 1.008268 -0.230121
v 0.333075 1.034286 -0.243337
v 0.350312 1.113204 -0.242219
v 0.370657 1.086791 -0.231015
v 0.350314 0.965602 -0.259135
v 0.326451 0.988423 -0.265305
v 0.300029 0.977284 -0.388408
v 0.285497 1.009175 -0.371622
v 0.288252 1.080450 -0.409552
v 0.275779 1.106438 -0.445150
v 0.300030 1.049517 -0.421445
v 0.317150 0.948099 -0.348556
v 0.299943 0.974433 -0.336777
v 0.177513 0.899122 -0.482633
v 0.163836 0.731027 -0.424573
v 0.134881 0.740848 -0.375846
v 0.166496 0.936889 -0.470215
v 0.249583 0.965736 -0.447407
v 0.224804 0.995281 -0.442606
v 0.248457 1.071340 -0.456095
v 0.267849 1.042149 -0.459084
v 0.219562 0.925758 -0.462691
v 0.200208 0.951601 -0.453423
v 0.100937 0.949250 -0.531630
v 0.104332 0.981920 -0.510866
v 0.091316 1.053912 -0.545130
v 0.062514 1.082785 -0.565985
v 0.089017 1.022316 -0.560410
v 0.135588 0.916445 -0.510270
v 0.133089 0.944157 -0.491452
v -0.062060 0.891018 -0.524037
v -0.056856 0.723394 -0.463572
v -0.046844 0.734692 -0.407292
v -0.057949 0.929300 -0.508987
v 0.023650 0.946632 -0.545004
v 0.011344 0.978770 -0.526956
v 0.030346 1.051847 -0.555681
v 0.039711 1.020646 -0.568942
v -0.013925 0.911380 -0.536142
v -0.019714 0.938981 -0.517894
v -0.145384 0.952358 -0.515754
v -0.125652 0.983411 -0.503250
v -0.148348 1.057899 -0.524759
v -0.180002 1.091000 -0.524020
v -0.163649 1.027534 -0.533751
v -0.109417 0.914615 -0.519618
v -0.096039 0.941567 -0.504686
v -0.272702 0.914391 -0.404628
v -0.251459 0.744796 -0.354230
v -0.206650 0.752416 -0.316747
v -0.255278 0.951199 -0.397105
v -0.213350 0.959896 -0.477244
v -0.207424 0.992480 -0.456918
v -0.201964 1.063846 -0.494380
v -0.207008 1.032343 -0.509185
v -0.240897 0.929197 -0.445122
v -0.230412 0.956469 -0.428551
v -0.323679 0.985153 -0.348208
v -0.296841 1.012950 -0.352339
v -0.318598 1.090547 -0.357970
v -0.338293 1.127237 -0.338889
v -0.339742 1.062729 -0.353945
v -0.303225 0.943465 -0.372226
v -0.280229 0.967874 -0.370287
v -0.355852 0.958305 -0.180278
v -0.328916 0.785220 -0.147711
v -0.269762 0.785725 -0.146576
v -0.333160 0.992341 -0.186920
v -0.350521 0.999320 -0.275835
v -0.329136 1.029994 -0.265264
v -0.339773 1.101722 -0.300876
v -0.356865 1.071767 -0.307774
v -0.355150 0.970870 -0.232219
v -0.333297 0.995882 -0.227199
v -0.350521 1.032291 -0.107389
v -0.329136 1.056716 -0.128745
v -0.339773 1.136578 -0.122805
v -0.338293 1.174542 -0.097218
v -0.356865 1.111434 -0.105122
v -0.355150 0.989497 -0.137060
v -0.333297 1.010770 -0.151140
v -0.272603 1.002213 0.044036
v -0.252985 0.825751 0.059353
v -0.206650 0.819034 0.023594
v -0.255153 1.033474 0.023221
v -0.323679 1.046457 -0.035016
v -0.296841 1.073760 -0.041670
v -0.318598 1.147753 -0.065711
v -0.339742 1.120471 -0.058952
v -0.303225 1.016902 0.002947
v -0.280229 1.038778 -0.008052
v -0.213350 1.071715 0.094021
v -0.207424 1.094231 0.062909
v -0.201964 1.174454 0.070699
v -0.180002 1.210779 0.087913
v -0.207008 1.150858 0.096289
v -0.240897 1.031170 0.075843
v -0.230412 1.050182 0.050212
v -0.061908 1.025568 0.163356
v -0.059194 0.847424 0.170075
v -0.046844 0.836757 0.114140
v -0.057757 1.055352 0.134990
v -0.145384 1.079253 0.132530
v -0.125652 1.103299 0.109241
v -0.148348 1.180401 0.101078
v -0.163649 1.155666 0.120855
v -0.109417 1.045752 0.150339
v -0.096039 1.065085 0.126348
v 0.023650 1.084978 0.161780
v 0.011344 1.107940 0.132947
v 0.030346 1.186453 0.132000
v 0.062514 1.218994 0.129879
v 0.039711 1.162555 0.156045
v -0.013925 1.048987 0.166864
v -0.019714 1.067670 0.139555
v 0.177647 1.017444 0.121850
v 0.161780 0.840097 0.132647
v 0.134881 0.830602 0.082694
v 0.166664 1.047737 0.096089
v 0.100937 1.082360 0.148406
v 0.104332 1.104790 0.116856
v 0.091316 1.184388 0.121449
v 0.089017 1.160884 0.147513
v 0.135588 1.043922 0.140991
v 0.133089 1.062495 0.113114
v 0.249583 1.065875 0.064183
v 0.224804 1.091429 0.048597
v 0.248457 1.166960 0.032414
v 0.275779 1.195341 0.009043
v 0.267849 1.141051 0.046188
v 0.219562 1.034609 0.093412
v 0.200208 1.055051 0.075084
v 0.300029 1.054326 0.005184
v 0.285497 1.077535 -0.022387
v 0.288252 1.157850 -0.014130
v 0.300030 1.133684 0.008549
v 0.317150 1.012269 -0.020723
v 0.299943 1.032219 -0.041562
vt 0.179062 0.913516
vt 0.173676 0.996754
vt 0.165695 0.918740
vt 0.234328 0.913516
vt 0.239715 0.996754
vt 0.189925 0.898844
vt 0.223466 0.898844
vt 0.247765 0.918747
vt 0.206695 0.858975
vt 0.195695 0.870874
vt 0.217696 0.870874
vt 0.051030 0.933312
vt 0.066782 0.913037
vt 0.078935 0.961595
vt 0.070031 0.980889
vt 0.033534 0.907658
vt 0.041474 0.887226
vt 0.093785 0.994179
vt 0.108292 0.961479
vt 0.135947 0.933033
vt 0.007513 0.901704
vt 0.117349 0.980663
vt 0.179126 0.901381
vt 0.120076 0.912906
vt 0.179126 0.871397
vt 0.145222 0.887040
vt 0.007513 0.751163
vt 0.179126 0.751163
vt 0.007513 0.871641
vt 0.153739 0.907370
vt 0.179062 0.913516
vt 0.173676 0.996754
vt 0.165695 0.918740
vt 0.033534 0.907658
vt 0.007513 0.901704
vt 0.007513 0.871641
vt 0.041474 0.887226
vt 0.051030 0.933312
vt 0.066782 0.913037
vt 0.078935 0.961595
vt 0.070031 0.980889
vt 0.223466 0.898844
vt 0.189925 0.898844
vt 0.206695 0.858975
vt 0.195695 0.870874
vt 0.234328 0.913516
vt 0.247765 0.918747
vt 0.239715 0.996754
vt 0.153739 0.907370
vt 0.145222 0.887040
vt 0.179126 0.871397
vt 0.179126 0.901381
vt 0.108292 0.961479
vt 0.093785 0.994179
vt 0.135947 0.933033
vt 0.117349 0.980663
vt 0.120076 0.912906
vt 0.217696 0.870874
vt 0.179126 0.751163
vt 0.007513 0.751163
vt 0.179062 0.913516
vt 0.173676 0.996754
vt 0.165695 0.918740
vt 0.033534 0.907658
vt 0.007513 0.901704
vt 0.007513 0.871641
vt 0.041474 0.887226
vt 0.051030 0.933312
vt 0.066782 0.913037
vt 0.078935 0.961595
vt 0.070031 0.980889
vt 0.223466 0.898844
vt 0.189925 0.898844
vt 0.206695 0.858975
vt 0.195695 0.870874
vt 0.234328 0.913516
vt 0.247765 0.918747
vt 0.239715 0.996754
vt 0.153739 0.907370
vt 0.145222 0.887040
vt 0.179126 0.871397
vt 0.179126 0.901381
vt 0.108292 0.961479
vt 0.093785 0.994179
vt 0.135947 0.933033
vt 0.117349 0.980663
vt 0.120076 0.912906
vt 0.217696 0.870874
vt 0.179126 0.751163
vt 0.007513 0.751163
vt 0.179062 0.913516
vt 0.173676 0.996754
vt 0.165695 0.918740
vt 0.033534 0.907658
vt 0.007513 0.901704
vt 0.007513 0.871641
vt 0.041474 0.887226
vt 0.051030 0.933312
vt 0.066782 0.913037
vt 0.078935 0.961595
vt 0.070031 0.980889
vt 0.223466 0.898844
vt 0.189925 0.898844
vt 0.206695 0.858975
vt 0.195695 0.870874
vt 0.234328 0.913516
vt 0.247765 0.918747
vt 0.239715 0.996754
vt 0.153739 0.907370
vt 0.145222 0.887040
vt 0.179126 0.871397
vt 0.179126 0.901381
vt 0.108292 0.961479
vt 0.093785 0.994179
vt 0.135947 0.933033
vt 0.117349 0.980663
vt 0.120076 0.912906
vt 0.217696 0.870874
vt 0.179126 0.751163
vt 0.007513 0.751163
vt 0.179062 0.913516
vt 0.173676 0.996754
vt 0.165695 0.918740
vt 0.033534 0.907658
vt 0.007513 0.901704
vt 0.007513 0.871641
vt 0.041474 0.887226
vt 0.051030 0.933312
vt 0.066782 0.913037
vt 0.078935 0.961595
vt 0.070031 0.980889
vt 0.223466 0.898844
vt 0.189925 0.898844
vt 0.206695 0.858975
vt 0.195695 0.870874
vt 0.234328 0.913516
vt 0.247765 0.918747
vt 0.239715 0.996754
vt 0.153739 0.907370
vt 0.145222 0.887040
vt 0.179126 0.871397
vt 0.179126 0.901381
vt 0.108292 0.961479
vt 0.093785 0.994179
vt 0.135947 0.933033
vt 0.117349 0.980663
vt 0.120076 0.912906
vt 0.217696 0.870874
vt 0.179126 0.751163
vt 0.007513 0.751163
vt 0.179062 0.913516
vt 0.173676 0.996754
vt 0.165695 0.918740
vt 0.033534 0.907658
vt 0.007513 0.901704
vt 0.007513 0.871641
vt 0.041474 0.887226
vt 0.051030 0.933312
vt 0.066782 0.913037
vt 0.078935 0.961595
vt 0.070031 0.980889
vt 0.223466 0.898844
vt 0.189925 0.898844
vt 0.206695 0.858975
vt 0.195695 0.870874
vt 0.234328 0.913516
vt 0.247765 0.918747
vt 0.239715 0.996754
vt 0.153739 0.907370
vt 0.145222 0.887040
vt 0.179126 0.871397
vt 0.179126 0.901381
vt 0.108292 0.961479
vt 0.093785 0.994179
vt 0.135947 0.933033
vt 0.117349 0.980663
vt 0.120076 0.912906
vt 0.217696 0.870874
vt 0.179126 0.751163
vt 0.007513 0.751163
vt 0.179062 0.913516
vt 0.173676 0.996754
vt 0.165695 0.918740
vt 0.033534 0.907658
vt 0.007513 0.901704
vt 0.007513 0.871641
vt 0.041474 0.887226
vt 0.051030 0.933312
vt 0.066782 0.913037
vt 0.078935 0.961595
vt 0.070031 0.980889
vt 0.223466 0.898844
vt 0.189925 0.898844
vt 0.206695 0.858975
vt 0.195695 0.870874
vt 0.234328 0.913516
vt 0.247765 0.918747
vt 0.239715 0.996754
vt 0.153739 0.907370
vt 0.145222 0.887040
vt 0.179126 0.871397
vt 0.179126 0.901381
vt 0.108292 0.961479
vt 0.093785 0.994179
vt 0.135947 0.933033
vt 0.117349 0.980663
vt 0.120076 0.912906
vt 0.217696 0.870874
vt 0.179126 0.751163
vt 0.007513 0.751163
vt 0.179062 0.913516
vt 0.173676 0.996754
vt 0.165695 0.918740
vt 0.033534 0.907658
vt 0.007513 0.901704
vt 0.007513 0.871641
vt 0.041474 0.887226
vt 0.051030 0.933312
vt 0.066782 0.913037
vt 0.078935 0.961595
vt 0.070031 0.980889
vt 0.223466 0.898844
vt 0.189925 0.898844
vt 0.206695 0.858975
vt 0.195695 0.870874
vt 0.234328 0.913516
vt 0.247765 0.918747
vt 0.239715 0.996754
vt 0.153739 0.907370
vt 0.145222 0.887040
vt 0.179126 0.871397
vt 0.179126 0.901381
vt 0.108292 0.961479
vt 0.093785 0.994179
vt 0.135947 0.933033
vt 0.117349 0.980663
vt 0.120076 0.912906
vt 0.217696 0.870874
vt 0.179126 0.751163
vt 0.007513 0.751163
vt 0.179062 0.913516
vt 0.173676 0.996754
vt 0.165695 0.918740
vt 0.033534 0.907658
vt 0.007513 0.901704
vt 0.007513 0.871641
vt 0.041474 0.887226
vt 0.051030 0.933312
vt 0.066782 0.913037
vt 0.078935 0.961595
vt 0.070031 0.980889
vt 0.223466 0.898844
vt 0.189925 0.898844
vt 0.206695 0.858975
vt 0.195695 0.870874
vt 0.234328 0.913516
vt 0.247765 0.918747
vt 0.239715 0.996754
vt 0.153739 0.907370
vt 0.145222 0.887040
vt 0.179126 0.871397
vt 0.179126 0.901381
vt 0.108292 0.961479
vt 0.093785 0.994179
vt 0.135947 0.933033
vt 0.117349 0.980663
vt 0.120076 0.912906
vt 0.217696 0.870874
vt 0.179126 0.751163
vt 0.007513 0.751163
vn -0.953215 0.293092 -0.074023
vn -0.887064 0.261793 -0.380238
vn -0.899792 0.220090 -0.376742
vn 0.637307 0.608949 0.472251
vn 0.765553 0.622522 0.162465
vn 0.939595 0.044139 0.339430
vn 0.983886 -0.158691 0.082375
vn 0.471086 0.371706 0.799945
vn 0.974294 -0.040472 0.221614
vn 0.925584 0.055135 0.374505
vn 0.534629 0.370967 0.759313
vn -0.982100 0.185053 -0.035157
vn -0.982100 0.184651 -0.037209
vn -0.972450 0.228772 -0.044780
vn -0.975369 0.173786 -0.135844
vn -0.953214 0.299390 -0.041822
vn -0.899760 0.345909 0.266043
vn -0.887066 0.385834 0.253467
vn 0.637605 0.386236 -0.666545
vn 0.984098 -0.177112 -0.013488
vn 0.939399 -0.087123 -0.331570
vn 0.765642 0.515370 -0.384950
vn 0.925584 -0.090135 -0.367654
vn 0.959543 0.276317 -0.054086
vn 0.471086 0.042668 -0.881055
vn 0.534630 0.057302 -0.843141
vn 0.974294 -0.121041 -0.190000
vn -0.975369 0.212179 0.060298
vn 0.916762 -0.283827 -0.281052
vn 0.914319 -0.155696 0.373871
vn -0.740710 0.411525 0.531033
vn 0.861434 0.503961 -0.062891
vn 0.786287 -0.281281 -0.550122
vn 0.911388 0.275048 0.306137
vn 0.881153 -0.170198 -0.441137
vn 0.952090 -0.076146 -0.296185
vn 0.934342 0.268261 0.234610
vn -0.751660 0.306271 0.584128
vn -0.753004 0.305964 0.582556
vn -0.744940 0.348846 0.568658
vn -0.811411 0.298711 0.502378
vn -0.719619 0.416349 0.555700
vn -0.478721 0.442287 0.758425
vn -0.472000 0.480856 0.738914
vn 0.115828 0.334326 -0.935313
vn 0.723737 -0.295286 -0.623707
vn 0.499834 -0.185654 -0.845990
vn 0.406661 0.434406 -0.803691
vn 0.465987 -0.187429 -0.864712
vn 0.735053 0.157837 -0.659382
vn -0.189643 0.022990 -0.981584
vn -0.115243 0.027980 -0.992943
vn 0.611552 -0.231918 -0.756451
vn -0.682939 0.328124 0.652632
vn 0.489667 -0.380064 -0.784715
vn -0.181619 0.476011 0.860481
vn 0.682251 0.396347 -0.614364
vn 0.220678 -0.348873 -0.910818
vn 0.925242 0.146637 -0.349893
vn 0.375711 -0.258074 -0.890078
vn 0.533103 -0.179986 -0.826684
vn 0.896865 0.140229 -0.419486
vn -0.169510 0.370677 0.913162
vn -0.171570 0.370607 0.912806
vn -0.168865 0.412736 0.895061
vn -0.267784 0.374167 0.887858
vn -0.149306 0.477101 0.866073
vn 0.166319 0.464129 0.870013
vn 0.163920 0.502395 0.848958
vn -0.459533 0.359242 -0.812265
vn 0.124698 -0.351757 -0.927749
vn -0.173680 -0.205354 -0.963154
vn -0.141711 0.417567 -0.897528
vn -0.211650 -0.205212 -0.955559
vn 0.166625 0.094794 -0.981453
vn -0.761636 0.089500 -0.641795
vn -0.711190 0.085761 -0.697749
vn -0.037342 -0.272065 -0.961554
vn -0.070959 0.380834 0.921917
vn -0.167094 -0.399371 -0.901434
vn 0.462453 0.456376 0.760170
vn 0.183719 0.336573 -0.923562
vn -0.448932 -0.329749 -0.830497
vn 0.506163 0.046558 -0.861180
vn -0.305531 -0.262981 -0.915146
vn -0.135330 -0.207797 -0.968765
vn 0.439734 0.046778 -0.896909
vn 0.491956 0.348133 0.797987
vn 0.490145 0.348333 0.799013
vn 0.486225 0.390547 0.781702
vn 0.401135 0.364843 0.840226
vn 0.490869 0.453220 0.744069
vn 0.733534 0.401215 0.548593
vn 0.723141 0.440375 0.532107
vn -0.819689 0.449252 -0.355363
vn -0.533405 -0.320026 -0.782983
vn -0.766067 -0.136958 -0.628000
vn -0.622303 0.472418 -0.624148
vn -0.790254 -0.135162 -0.597687
vn -0.479772 0.116688 -0.869599
vn -0.977251 0.211077 -0.020680
vn -0.974365 0.203610 -0.095681
vn -0.668764 -0.222696 -0.709339
vn 0.574227 0.345645 0.742155
vn -0.746190 -0.332721 -0.576626
vn 0.890139 0.361808 0.277035
vn -0.400308 0.352601 -0.845829
vn -0.908894 -0.232723 -0.346050
vn -0.149753 0.021639 -0.988487
vn -0.843811 -0.182622 -0.504610
vn -0.740440 -0.146566 -0.655947
vn -0.223151 0.031636 -0.974270
vn 0.923229 0.249187 0.292495
vn 0.922514 0.249565 0.294423
vn 0.913804 0.292662 0.281624
vn 0.882368 0.275104 0.381764
vn 0.901360 0.355880 0.246776
vn 0.957522 0.282981 -0.055439
vn 0.943995 0.323815 -0.063381
vn -0.796583 0.562308 0.221956
vn -0.942392 -0.214803 -0.256432
vn -0.999919 -0.012448 0.002756
vn -0.811729 0.573134 -0.112312
vn -0.999090 -0.010057 0.041453
vn -0.901676 0.213274 -0.376158
vn -0.735600 0.330834 0.591136
vn -0.781624 0.326383 0.531544
vn -0.987263 -0.106912 -0.117820
vn 0.950726 0.239026 0.197450
vn -0.976693 -0.211308 0.037690
vn 0.901318 0.236555 -0.362859
vn -0.796477 0.436821 -0.418105
vn -0.943242 -0.103238 0.315651
vn -0.735600 0.083540 -0.672245
vn -0.987263 -0.054600 0.149434
vn -0.999090 -0.024944 -0.034602
vn -0.781624 0.101886 -0.615373
vn 0.922514 0.120139 -0.366789
vn 0.923229 0.120517 -0.364861
vn 0.913804 0.164882 -0.371183
vn 0.950726 0.146939 -0.272999
vn 0.890095 0.230628 -0.393117
vn 0.733474 0.164753 -0.659448
vn 0.723144 0.207254 -0.658869
vn -0.400756 0.645610 0.650064
vn -0.910138 -0.085348 0.405418
vn -0.765667 0.109876 0.633783
vn -0.622461 0.672845 0.399778
vn -0.740440 0.111565 0.662798
vn -0.901676 0.339359 0.267984
vn -0.149754 0.392735 0.907377
vn -0.223152 0.396634 0.890441
vn -0.843811 0.021110 0.536225
vn 0.882368 0.110865 -0.457314
vn -0.750788 -0.091935 0.654114
vn 0.490761 0.139225 -0.860099
vn -0.819971 0.549793 0.159296
vn -0.535963 -0.002028 0.844239
vn -0.977251 0.203296 -0.060430
vn -0.668764 0.061184 0.740953
vn -0.790254 0.100161 0.604538
vn -0.974365 0.224659 0.011852
vn 0.490145 0.021371 -0.871379
vn 0.491955 0.021572 -0.870353
vn 0.486225 0.066996 -0.871262
vn 0.574229 0.040320 -0.817702
vn 0.462345 0.136070 -0.876198
vn 0.166225 0.101849 -0.980814
vn 0.163926 0.145233 -0.975723
vn 0.183139 0.660143 0.728472
vn -0.451704 0.007619 0.892135
vn -0.173084 0.172744 0.969640
vn -0.141960 0.725145 0.673804
vn -0.135330 0.172796 0.975616
vn -0.479771 0.435945 0.761428
vn 0.506164 0.367816 0.780070
vn 0.439736 0.381491 0.813079
vn -0.305531 0.101468 0.946760
vn 0.401142 0.021124 -0.915772
vn -0.174135 -0.030450 0.984251
vn -0.149429 0.115360 -0.982020
vn -0.460070 0.638754 0.616708
vn 0.121612 0.023538 0.992299
vn -0.761635 0.324873 0.560687
vn -0.037342 0.110552 0.993169
vn -0.211650 0.170211 0.962410
vn -0.711191 0.342507 0.613919
vn -0.171569 -0.000903 -0.985172
vn -0.169510 -0.000973 -0.985528
vn -0.168864 0.044808 -0.984620
vn -0.070958 0.005133 -0.997466
vn -0.181742 0.116451 -0.976427
vn -0.478801 0.123703 -0.869165
vn -0.471995 0.166772 -0.865683
vn 0.681813 0.598997 0.419921
vn 0.217658 0.020571 0.975808
vn 0.500342 0.146765 0.853298
vn 0.406439 0.705394 0.580712
vn 0.533103 0.144985 0.833535
vn 0.166623 0.457839 0.873281
vn 0.925242 0.267737 0.268783
vn 0.896866 0.288040 0.335656
vn 0.375711 0.096561 0.921693
vn -0.267783 0.011800 -0.963407
vn 0.483481 -0.055629 0.873586
vn -0.719699 0.176127 -0.671574
vn 0.115282 0.662146 0.740454
vn 0.721570 -0.038358 0.691278
vn -0.189642 0.391384 0.900475
vn 0.611552 0.070405 0.788066
vn 0.465987 0.152429 0.871563
vn -0.115242 0.400289 0.909114
vn -0.753004 0.063740 -0.654922
vn -0.751660 0.063432 -0.656493
vn -0.744940 0.108698 -0.658217
vn -0.682938 0.057842 -0.728182
vn -0.740790 0.180951 -0.646906
vn 0.861344 0.490779 -0.131235
vn 0.784441 -0.052416 0.617984
vn 0.952090 0.041145 0.303037
vn 0.735053 0.394797 0.551210
vn 0.911388 0.139326 -0.387246
vn 0.934342 0.160008 -0.318437
vn 0.881154 0.008686 0.472751
vn -0.811411 0.087254 -0.577927
s 1
g Crown
usemtl lambert7SG
f 11/1/1 3/2/2 4/3/3
s 2
f 11/16/4 4/21/5 1/29/6 10/17/7
f 6/12/8 5/13/9 9/14/10 7/15/11
f 6/12/8 11/16/4 10/17/7 5/13/9
s 1
f 17/7/12 6/6/13 8/9/14
f 8/9/14 6/6/13 7/10/15
f 21/4/16 15/8/17 14/5/18
s 2
f 21/30/19 20/26/20 12/25/21 15/23/22
f 19/19/23 8/18/24 9/14/10
f 17/20/25 18/22/26 19/19/23 16/24/27
f 17/20/25 16/24/27 20/26/20 21/30/19
s 1
f 8/9/14 18/11/28 17/7/12
f 21/4/16 11/1/1 6/6/13 17/7/12
f 3/2/2 11/1/1 21/4/16 14/5/18
s 2
f 20/26/20 13/28/29 12/25/21
f 2/27/30 10/17/7 1/29/6
f 19/19/23 9/14/10 5/13/9 16/24/27
f 8/18/24 19/19/23 18/22/26
f 8/18/24 7/15/11 9/14/10
f 20/26/20 10/17/7 2/27/30 13/28/29
f 16/24/27 5/13/9 10/17/7 20/26/20
s 1
f 28/31/31 14/32/18 15/33/17
s 2
f 28/34/32 15/35/22 12/36/21 27/37/33
f 23/38/34 22/39/35 26/40/36 24/41/37
f 23/38/34 28/34/32 27/37/33 22/39/35
s 1
f 34/42/38 23/43/39 25/44/40
f 25/44/40 23/43/39 24/45/41
f 38/46/42 32/47/43 31/48/44
s 2
f 38/49/45 37/50/46 29/51/47 32/52/48
f 36/53/49 25/54/50 26/40/36
f 34/55/51 35/56/52 36/53/49 33/57/53
f 34/55/51 33/57/53 37/50/46 38/49/45
s 1
f 25/44/40 35/58/54 34/42/38
f 38/46/42 28/31/31 23/43/39 34/42/38
f 14/32/18 28/31/31 38/46/42 31/48/44
s 2
f 37/50/46 30/59/55 29/51/47
f 13/60/29 27/37/33 12/36/21
f 36/53/49 26/40/36 22/39/35 33/57/53
f 25/54/50 36/53/49 35/56/52
f 25/54/50 24/41/37 26/40/36
f 37/50/46 27/37/33 13/60/29 30/59/55
f 33/57/53 22/39/35 27/37/33 37/50/46
s 1
f 45/61/56 31/62/44 32/63/43
s 2
f 45/64/57 32/65/48 29/66/47 44/67/58
f 40/68/59 39/69/60 43/70/61 41/71/62
f 40/68/59 45/64/57 44/67/58 39/69/60
s 1
f 51/72/63 40/73/64 42/74/65
f 42/74/65 40/73/64 41/75/66
f 55/76/67 49/77/68 48/78/69
s 2
f 55/79/70 54/80/71 46/81/72 49/82/73
f 53/83/74 42/84/75 43/70/61
f 51/85/76 52/86/77 53/83/74 50/87/78
f 51/85/76 50/87/78 54/80/71 55/79/70
s 1
f 42/74/65 52/88/79 51/72/63
f 55/76/67 45/61/56 40/73/64 51/72/63
f 31/62/44 45/61/56 55/76/67 48/78/69
s 2
f 54/80/71 47/89/80 46/81/72
f 30/90/55 44/67/58 29/66/47
f 53/83/74 43/70/61 39/69/60 50/87/78
f 42/84/75 53/83/74 52/86/77
f 42/84/75 41/71/62 43/70/61
f 54/80/71 44/67/58 30/90/55 47/89/80
f 50/87/78 39/69/60 44/67/58 54/80/71
s 1
f 62/91/81 48/92/69 49/93/68
s 2
f 62/94/82 49/95/73 46/96/72 61/97/83
f 57/98/84 56/99/85 60/100/86 58/101/87
f 57/98/84 62/94/82 61/97/83 56/99/85
s 1
f 68/102/88 57/103/89 59/104/90
f 59/104/90 57/103/89 58/105/91
f 72/106/92 66/107/93 65/108/94
s 2
f 72/109/95 71/110/96 63/111/97 66/112/98
f 70/113/99 59/114/100 60/100/86
f 68/115/101 69/116/102 70/113/99 67/117/103
f 68/115/101 67/117/103 71/110/96 72/109/95
s 1
f 59/104/90 69/118/104 68/102/88
f 72/106/92 62/91/81 57/103/89 68/102/88
f 48/92/69 62/91/81 72/106/92 65/108/94
s 2
f 71/110/96 64/119/105 63/111/97
f 47/120/80 61/97/83 46/96/72
f 70/113/99 60/100/86 56/99/85 67/117/103
f 59/114/100 70/113/99 69/116/102
f 59/114/100 58/101/87 60/100/86
f 71/110/96 61/97/83 47/120/80 64/119/105
f 67/117/103 56/99/85 61/97/83 71/110/96
s 1
f 79/121/106 65/122/94 66/123/93
s 2
f 79/124/107 66/125/98 63/126/97 78/127/108
f 74/128/109 73/129/110 77/130/111 75/131/112
f 74/128/109 79/124/107 78/127/108 73/129/110
s 1
f 85/132/113 74/133/114 76/134/115
f 76/134/115 74/133/114 75/135/116
f 89/136/117 83/137/118 82/138/119
s 2
f 89/139/120 88/140/121 80/141/122 83/142/123
f 87/143/124 76/144/125 77/130/111
f 85/145/126 86/146/127 87/143/124 84/147/128
f 85/145/126 84/147/128 88/140/121 89/139/120
s 1
f 76/134/115 86/148/129 85/132/113
f 89/136/117 79/121/106 74/133/114 85/132/113
f 65/122/94 79/121/106 89/136/117 82/138/119
s 2
f 88/140/121 81/149/130 80/141/122
f 64/150/105 78/127/108 63/126/97
f 87/143/124 77/130/111 73/129/110 84/147/128
f 76/144/125 87/143/124 86/146/127
f 76/144/125 75/131/112 77/130/111
f 88/140/121 78/127/108 64/150/105 81/149/130
f 84/147/128 73/129/110 78/127/108 88/140/121
s 1
f 96/151/131 82/152/119 83/153/118
s 2
f 96/154/132 83/155/123 80/156/122 95/157/133
f 91/158/134 90/159/135 94/160/136 92/161/137
f 91/158/134 96/154/132 95/157/133 90/159/135
s 1
f 102/162/138 91/163/139 93/164/140
f 93/164/140 91/163/139 92/165/141
f 106/166/142 100/167/143 99/168/144
s 2
f 106/169/145 105/170/146 97/171/147 100/172/148
f 104/173/149 93/174/150 94/160/136
f 102/175/151 103/176/152 104/173/149 101/177/153
f 102/175/151 101/177/153 105/170/146 106/169/145
s 1
f 93/164/140 103/178/154 102/162/138
f 106/166/142 96/151/131 91/163/139 102/162/138
f 82/152/119 96/151/131 106/166/142 99/168/144
s 2
f 105/170/146 98/179/155 97/171/147
f 81/180/130 95/157/133 80/156/122
f 104/173/149 94/160/136 90/159/135 101/177/153
f 93/174/150 104/173/149 103/176/152
f 93/174/150 92/161/137 94/160/136
f 105/170/146 95/157/133 81/180/130 98/179/155
f 101/177/153 90/159/135 95/157/133 105/170/146
s 1
f 113/181/156 99/182/144 100/183/143
s 2
f 113/184/157 100/185/148 97/186/147 112/187/158
f 108/188/159 107/189/160 111/190/161 109/191/162
f 108/188/159 113/184/157 112/187/158 107/189/160
s 1
f 119/192/163 108/193/164 110/194/165
f 110/194/165 108/193/164 109/195/166
f 123/196/167 117/197/168 116/198/169
s 2
f 123/199/170 122/200/171 114/201/172 117/202/173
f 121/203/174 110/204/175 111/190/161
f 119/205/176 120/206/177 121/203/174 118/207/178
f 119/205/176 118/207/178 122/200/171 123/199/170
s 1
f 110/194/165 120/208/179 119/192/163
f 123/196/167 113/181/156 108/193/164 119/192/163
f 99/182/144 113/181/156 123/196/167 116/198/169
s 2
f 122/200/171 115/209/180 114/201/172
f 98/210/155 112/187/158 97/186/147
f 121/203/174 111/190/161 107/189/160 118/207/178
f 110/204/175 121/203/174 120/206/177
f 110/204/175 109/191/162 111/190/161
f 122/200/171 112/187/158 98/210/155 115/209/180
f 118/207/178 107/189/160 112/187/158 122/200/171
s 1
f 130/211/181 116/212/169 117/213/168
s 2
f 130/214/182 117/215/173 114/216/172 129/217/183
f 125/218/184 124/219/185 128/220/186 126/221/187
f 125/218/184 130/214/182 129/217/183 124/219/185
s 1
f 136/222/188 125/223/189 127/224/190
f 127/224/190 125/223/189 126/225/191
f 140/226/192 134/227/193 133/228/194
s 2
f 140/229/195 139/230/196 131/231/197 134/232/198
f 138/233/199 127/234/200 128/220/186
f 136/235/201 137/236/202 138/233/199 135/237/203
f 136/235/201 135/237/203 139/230/196 140/229/195
s 1
f 127/224/190 137/238/204 136/222/188
f 140/226/192 130/211/181 125/223/189 136/222/188
f 116/212/169 130/211/181 140/226/192 133/228/194
s 2
f 139/230/196 132/239/205 131/231/197
f 115/240/180 129/217/183 114/216/172
f 138/233/199 128/220/186 124/219/185 135/237/203
f 127/234/200 138/233/199 137/236/202
f 127/234/200 126/221/187 128/220/186
f 139/230/196 129/217/183 115/240/180 132/239/205
f 135/237/203 124/219/185 129/217/183 139/230/196
s 1
f 147/241/206 133/242/194 134/243/193
s 2
f 147/244/207 134/245/198 131/246/197 146/247/208
f 142/248/209 141/249/210 145/250/211 143/251/212
f 142/248/209 147/244/207 146/247/208 141/249/210
s 1
f 149/252/213 142/253/214 144/254/215
f 144/254/215 142/253/214 143/255/216
f 153/256/217 4/257/3 3/258/2
s 2
f 153/259/218 152/260/219 1/261/6 4/262/5
f 151/263/220 144/264/221 145/250/211
f 149/265/222 150/266/223 151/263/220 148/267/224
f 149/265/222 148/267/224 152/260/219 153/259/218
s 1
f 144/254/215 150/268/225 149/252/213
f 153/256/217 147/241/206 142/253/214 149/252/213
f 133/242/194 147/241/206 153/256/217 3/258/2
s 2
f 152/260/219 2/269/30 1/261/6
f 132/270/205 146/247/208 131/246/197
f 151/263/220 145/250/211 141/249/210 148/267/224
f 144/264/221 151/263/220 150/266/223
f 144/264/221 143/251/212 145/250/211
f 152/260/219 146/247/208 132/270/205 2/269/30
f 148/267/224 141/249/210 146/247/208 152/260/219
