# This file uses centimeters as units for non-parametric coordinates.

mtllib Eyes.mtl
g default
v 0.129449 0.474648 0.299262
v 0.211250 0.472802 0.252424
v 0.135235 0.568532 0.305666
v 0.217036 0.566685 0.258827
vt 0.875000 0.000000
vt 1.000000 0.000000
vt 1.000000 0.125000
vt 0.875000 0.125000
vn 0.493384 -0.089423 0.865203
vn 0.493384 -0.089423 0.865203
vn 0.493384 -0.089423 0.865203
vn 0.493384 -0.089423 0.865203
s off
g EyeLeft
usemtl lambert7SG
f 1/1/1 2/2/2 4/3/3 3/4/4
g default
v -0.107688 0.451592 0.308196
v -0.231212 0.449412 0.240564
v -0.115273 0.591921 0.317526
v -0.238797 0.589741 0.249894
vt 0.875000 0.000000
vt 0.875000 0.125000
vt 1.000000 0.125000
vt 1.000000 0.000000
vn -0.477413 -0.083958 0.874659
vn -0.477413 -0.083958 0.874659
vn -0.477413 -0.083958 0.874659
vn -0.477413 -0.083958 0.874659
s off
g EyeRight
usemtl lambert7SG
f 5/5/5 7/6/6 8/7/7 6/8/8
